<?xml version="1.0" encoding="UTF-8" standalone="no"?>
<!-- Created with Inkscape (http://www.inkscape.org/) -->

<svg
   xmlns:dc="http://purl.org/dc/elements/1.1/"
   xmlns:cc="http://creativecommons.org/ns#"
   xmlns:rdf="http://www.w3.org/1999/02/22-rdf-syntax-ns#"
   xmlns:svg="http://www.w3.org/2000/svg"
   xmlns="http://www.w3.org/2000/svg"
   xmlns:inkscape="http://www.inkscape.org/namespaces/inkscape"
   version="1.1"
   width="920.46252"
   height="190.28751"
   id="svg2"
   xml:space="preserve"><metadata
     id="metadata8"><rdf:RDF><cc:Work
         rdf:about=""><dc:format>image/svg+xml</dc:format><dc:type
           rdf:resource="http://purl.org/dc/dcmitype/StillImage" /></cc:Work></rdf:RDF></metadata><defs
     id="defs6"><clipPath
       id="clipPath18"><path
         d="m 0,0 7363.67,0 0,1522 L 0,1522 0,0 z"
         inkscape:connector-curvature="0"
         id="path20" /></clipPath></defs><g
     transform="matrix(1.25,0,0,-1.25,0,190.2875)"
     id="g10"><g
       transform="scale(0.1,0.1)"
       id="g12"><g
         id="g14"><g
           clip-path="url(#clipPath18)"
           id="g16"><path
             d="m 1084.17,841.223 c 8.1,-33.434 20.72,-63.235 38.21,-89.571 17.5,-26.242 39.81,-47.707 66.89,-64.093 27.17,-16.524 60.08,-24.747 98.19,-24.747 42.51,0 78.41,8.223 107.78,24.747 29.2,16.386 53.08,37.851 71.29,64.093 18.28,26.336 31.61,56.137 39.61,89.571 8.03,33.531 12.1,67.023 12.1,101.043 0,33.855 -4.07,67.414 -12.1,100.894 -8,33.36 -21.33,63.3 -39.61,89.45 -18.21,26.35 -42.09,47.62 -71.29,64.2 -29.37,16.36 -65.27,24.81 -107.78,24.81 -38.11,0 -71.02,-8.45 -98.19,-24.81 -27.08,-16.58 -49.39,-37.85 -66.89,-64.2 -17.49,-26.15 -30.11,-56.09 -38.21,-89.45 -8.16,-33.48 -12.1,-67.039 -12.1,-100.894 0,-34.02 3.94,-67.512 12.1,-101.043 z m 440.73,-226.973 -0.36,124.598 -1.82,0 c -8.58,-21.141 -21.1,-40.586 -37.72,-58.516 -16.49,-17.754 -35.48,-32.871 -56.59,-45 -21.23,-12.305 -44,-21.836 -68.16,-28.652 -24.33,-6.864 -48.33,-10.215 -72.08,-10.215 -50.07,0 -93.66,9.14 -130.53,27.246 -37.14,18.449 -67.71,43.359 -92.49,75.324 -24.72,31.805 -42.93,68.692 -54.77,110.645 -11.962,42.078 -17.821,86.336 -17.821,132.941 0,46.731 5.859,90.999 17.821,133.019 11.84,41.98 30.05,78.99 54.77,110.83 24.64,31.74 55.35,56.98 92.3,75.61 37.06,18.57 80.52,27.97 130.7,27.97 24.55,0 48.49,-2.89 71.93,-8.81 23.25,-5.95 45.24,-15.16 65.44,-27.38 20.45,-12.3 38.47,-27.48 54.18,-45.34 15.73,-17.82 27.94,-38.5 36.33,-62.25 l 2.21,0 0,375.76 79.42,0 0,-907.78 -72.76,0"
             inkscape:connector-curvature="0"
             id="path22"
             style="fill:#ffffff;fill-opacity:1;fill-rule:nonzero;stroke:none" /><path
             d="m 2118.42,1076.7 c -9.86,27.68 -23.55,52.28 -41.27,73.6 -17.82,21.57 -39.41,38.8 -64.85,51.74 -25.36,13.01 -54.12,19.58 -86.37,19.58 -32.95,0 -62.15,-6.57 -87.55,-19.58 -25.44,-12.94 -46.96,-30.17 -64.71,-51.74 -17.86,-21.32 -32.14,-46.17 -42.52,-74.34 -10.73,-28.07 -17.59,-56.85 -21.04,-86.144 l 424.02,0 c -0.79,30.134 -5.99,59.164 -15.71,86.884 z M 1722.15,831.309 c 8.09,-30.77 21.14,-58.778 38.83,-83.36 17.62,-24.511 40.23,-44.812 67.28,-60.918 27.1,-16.23 59.68,-24.219 97.93,-24.219 58.4,0 104.26,15.059 137.14,45.684 33.08,30.449 56.1,71.32 68.66,122.285 l 79.6,0 c -16.94,-74.804 -48.12,-132.519 -93.26,-173.172 -45.35,-40.851 -109.4,-61.144 -192.14,-61.144 -51.58,0 -96.3,9.14 -133.86,27.246 -37.6,18.449 -68.23,43.359 -91.97,75.324 -23.68,31.805 -41.27,68.692 -52.68,110.645 -11.2,42.078 -17.11,86.336 -17.11,132.941 0,43.317 5.91,85.669 17.11,127.229 11.41,41.66 29,78.76 52.68,111.29 23.61,32.78 54.37,59.09 91.84,79.09 37.53,19.84 82.21,29.82 133.73,29.82 52.41,0 97.26,-10.6 134.38,-31.97 37.27,-21.04 67.51,-48.78 90.73,-83.13 23.12,-34.4 39.88,-73.78 49.96,-118.31 10.27,-44.48 14.5,-89.691 12.67,-135.417 l -503.56,0 c 0,-28.911 4.04,-58.762 12.04,-89.914"
             inkscape:connector-curvature="0"
             id="path24"
             style="fill:#ffffff;fill-opacity:1;fill-rule:nonzero;stroke:none" /><path
             d="m 2319.38,1270.83 0,-110.51 4.09,0 c 21.2,40.65 48.92,72.45 83.16,95.39 34.3,22.86 78.08,34.34 131.45,34.34 43.02,0 82.35,-10.6 117.44,-31.97 35.25,-21.04 58.67,-53.26 70.57,-96.58 19.44,43.32 48.23,75.54 86.43,96.58 38.06,21.37 78.78,31.97 121.86,31.97 144.83,0 217.35,-76.88 217.35,-230.35 l 0,-445.45 -79.52,0 0,440.9 c 0,54.12 -11.44,95.49 -34.34,123.9 -23,28.23 -63.22,42.57 -120.91,42.57 -34.8,0 -63.78,-6.57 -86.45,-19.73 -23,-13.14 -41.4,-30.7 -54.89,-52.75 -13.56,-22.06 -23.09,-47.22 -28.59,-75.65 -5.6,-28.36 -8.32,-57.79 -8.32,-88.228 l 0,-371.012 -79.49,0 0,444.54 c 0,22.15 -2.34,43.13 -6.95,63.09 -4.78,19.84 -12.5,37.21 -23.03,52.1 -10.5,14.77 -24.92,26.31 -42.73,34.9 -17.7,8.42 -39.36,12.74 -64.82,12.74 -33.99,0 -63.35,-6.27 -88.5,-18.5 -25,-12.25 -45.48,-29.14 -61.13,-50.8 -15.55,-21.6 -27.28,-46.89 -34.89,-76.23 -7.75,-29.3 -11.46,-61.21 -11.46,-95.867 l 0,-365.973 -79.58,0 0,656.58 73.25,0"
             inkscape:connector-curvature="0"
             id="path26"
             style="fill:#ffffff;fill-opacity:1;fill-rule:nonzero;stroke:none" /><path
             d="m 3629.26,973.223 c -5.03,-9.328 -14.81,-16.125 -29.31,-20.516 -14.39,-4.172 -27.2,-7.121 -38.13,-8.848 -33.89,-5.793 -68.94,-11.222 -104.97,-15.972 -36.24,-4.489 -69.12,-11.606 -98.64,-20.84 -29.69,-9.371 -54.15,-22.664 -73.27,-40.137 -19.12,-17.426 -28.56,-42.148 -28.56,-74.41 0,-20.352 3.9,-38.34 11.97,-54.012 8.14,-15.812 18.99,-29.367 32.52,-40.754 13.53,-11.472 29.23,-20.066 47.19,-26.043 17.66,-6.027 35.96,-8.879 54.7,-8.879 30.6,0 59.62,4.583 87.78,13.848 27.96,9.336 52.49,22.988 73.18,40.84 20.81,17.766 37.33,39.355 49.71,64.785 12.2,25.504 18.39,54.317 18.39,86.481 l 0,104.457 -2.56,0 z m -399.61,194.907 c 13.57,27.94 31.71,50.99 55.1,69.13 23.31,17.97 50.44,31.22 81.75,39.92 31.29,8.54 65.96,12.87 104.07,12.87 28.46,0 57.36,-2.63 86.11,-8.3 28.69,-5.49 54.38,-15.93 77.24,-31.21 22.86,-15.22 41.5,-36.62 55.83,-64.29 14.36,-27.45 21.5,-63.32 21.5,-107.36 l 0,-348.831 c 0,-32.157 15.82,-48.301 47.1,-48.301 9.34,0 17.76,1.633 25.5,5.078 l 0,-67.41 c -9.24,-1.594 -17.66,-2.891 -24.74,-3.801 -7.32,-0.957 -16.43,-1.375 -27.62,-1.375 -20.1,0 -36.29,2.742 -48.42,8.203 -12.17,5.692 -21.6,13.457 -28.29,23.699 -6.74,10.118 -11.19,22.188 -13.37,36.133 -1.93,14.153 -2.96,29.57 -2.96,46.574 l -2.61,0 c -14.34,-21.339 -28.94,-40.195 -43.89,-56.582 -14.91,-16.621 -31.3,-30.351 -49.58,-41.535 -18.2,-10.859 -38.96,-19.453 -62.37,-25.215 -23.15,-5.976 -50.96,-9.062 -83.19,-9.062 -30.51,0 -59.22,3.644 -85.8,10.957 -26.72,7.051 -50.07,18.574 -69.91,34.219 -20.07,15.539 -35.68,35.644 -47.16,59.707 -11.47,24.062 -17.2,52.578 -17.2,85.695 0,45.758 10.17,81.531 30.53,107.289 20.37,25.816 47.32,45.527 80.72,59.121 33.44,13.496 71.37,23.129 113.12,28.617 41.94,5.465 84.58,10.774 127.73,15.907 16.92,1.664 31.81,3.833 44.59,6.373 12.46,2.54 23.2,7.12 31.71,13.33 8.33,6.25 15,15.03 19.68,26.08 4.65,10.96 7,25.24 7,43.07 0,27.15 -4.5,49.43 -13.34,66.66 -8.85,17.56 -21.07,31.16 -36.75,41.51 -15.81,10.14 -33.89,17.1 -54.87,20.9 -20.64,3.71 -42.75,5.72 -66.63,5.72 -50.7,0 -92.24,-12.19 -124.43,-36.29 -32.16,-24.16 -49.05,-62.93 -50.73,-116.33 l -79.62,0 c 2.47,38.18 10.67,71.16 24.2,99.13"
             inkscape:connector-curvature="0"
             id="path28"
             style="fill:#ffffff;fill-opacity:1;fill-rule:nonzero;stroke:none" /><path
             d="m 3881.74,1270.83 0,-113.04 2.43,0 c 15.12,39.9 42.43,71.81 81.27,96.07 39.11,23.99 82.06,36.19 128.67,36.19 45.75,0 84.22,-6.08 115.21,-17.79 30.94,-11.9 55.62,-28.62 74.19,-50.34 18.9,-21.63 32.1,-48.13 39.6,-79.45 7.82,-31.45 11.46,-66.64 11.46,-105.66 l 0,-422.56 -79.38,0 0,409.02 c 0,27.98 -2.58,53.99 -7.84,78.25 -5.04,24.07 -13.88,45.14 -26.6,62.8 -12.76,17.92 -29.96,31.75 -51.58,42.12 -21.67,9.95 -48.63,15.18 -81.04,15.18 -32.21,0 -60.89,-5.72 -85.9,-17.06 -25.17,-11.59 -46.34,-27.26 -63.7,-47.17 -17.4,-19.96 -30.9,-43.57 -40.89,-71.15 -9.72,-27.58 -15.05,-57.33 -15.9,-89.494 l 0,-382.496 -79.28,0 0,656.58 79.28,0"
             inkscape:connector-curvature="0"
             id="path30"
             style="fill:#ffffff;fill-opacity:1;fill-rule:nonzero;stroke:none" /><path
             d="m 4452.89,841.223 c 8.06,-33.434 20.85,-63.235 38.24,-89.571 17.5,-26.242 39.68,-47.707 66.86,-64.093 27.33,-16.524 60.06,-24.747 98.09,-24.747 42.53,0 78.5,8.223 107.71,24.747 29.33,16.386 53.34,37.851 71.52,64.093 18.3,26.336 31.35,56.137 39.48,89.571 8.07,33.531 12.16,67.023 12.16,101.043 0,33.855 -4.09,67.414 -12.16,100.894 -8.13,33.36 -21.18,63.3 -39.48,89.52 -18.18,26.28 -42.19,47.55 -71.52,64.13 -29.21,16.36 -65.18,24.81 -107.71,24.81 -38.03,0 -70.76,-8.45 -98.09,-24.81 -27.18,-16.58 -49.36,-37.85 -66.86,-64.13 -17.39,-26.22 -30.18,-56.16 -38.24,-89.52 -7.97,-33.48 -12.05,-67.039 -12.05,-100.894 0,-34.02 4.08,-67.512 12.05,-101.043 z m 440.76,-226.973 -0.35,124.598 -1.9,0 c -8.54,-21.141 -21.06,-40.586 -37.59,-58.516 -16.69,-17.754 -35.48,-32.871 -56.75,-45 -21.17,-12.305 -44.04,-21.836 -68.2,-28.652 -24.17,-6.864 -48.23,-10.215 -71.86,-10.215 -50.29,0 -93.67,9.14 -130.78,27.48 -36.94,18.215 -67.72,43.125 -92.27,75.09 -24.61,31.805 -43.03,68.692 -54.73,110.645 -12.1,42.078 -18.11,86.336 -18.11,132.941 0,46.731 6.01,90.999 17.96,133.019 11.85,41.98 30.27,78.99 54.88,110.83 24.55,31.74 55.33,56.98 92.27,75.61 36.85,18.57 80.43,27.97 130.51,27.97 24.58,0 48.66,-2.89 72,-8.81 23.32,-5.95 45.14,-15.16 65.6,-27.38 20.28,-12.3 38.24,-27.48 54.15,-45.34 15.69,-17.82 27.77,-38.5 36.31,-62.25 l 2.16,0 0,375.76 79.48,0 0,-907.78 -72.78,0"
             inkscape:connector-curvature="0"
             id="path32"
             style="fill:#ffffff;fill-opacity:1;fill-rule:nonzero;stroke:none" /><path
             d="m 5077.26,1270.25 168.05,-562.047 2.44,0 160.29,562.047 90.28,0 160.36,-562.047 2.57,0 167.89,562.047 85.16,0 -211.09,-656 -87.72,0 -161.53,551.77 -2.64,0 -160.35,-551.77 -87.78,0 -210.93,656 85,0"
             inkscape:connector-curvature="0"
             id="path34"
             style="fill:#ffffff;fill-opacity:1;fill-rule:nonzero;stroke:none" /><path
             d="m 6311.63,973.223 c -5.11,-9.328 -14.83,-16.125 -29.35,-20.516 -14.36,-4.172 -26.98,-7.121 -38.08,-8.848 -34.02,-5.793 -69.08,-11.222 -105.03,-15.972 -36.18,-4.489 -68.93,-11.606 -98.68,-20.84 -29.73,-9.371 -54.22,-22.664 -73.08,-40.137 -19.39,-17.426 -28.66,-42.148 -28.66,-74.41 0,-20.352 3.85,-38.34 12.02,-54.012 8.12,-15.812 18.95,-29.367 32.61,-40.754 13.42,-11.472 29.22,-20.066 46.9,-26.043 17.85,-6.027 36,-8.879 54.76,-8.879 30.57,0 59.78,4.583 87.78,13.848 28.12,9.336 52.33,22.988 73.21,40.84 20.77,17.766 37.3,39.355 49.56,64.785 12.38,25.504 18.53,54.317 18.53,86.481 l 0,104.457 -2.49,0 z m -399.7,194.907 c 13.59,27.94 31.84,50.99 55.16,69.13 23.21,17.97 50.46,31.22 81.66,39.92 31.38,8.54 66.09,12.87 104.19,12.87 28.7,0 57.24,-2.63 86.08,-8.3 28.68,-5.49 54.55,-15.93 77.23,-31.21 22.97,-15.22 41.57,-36.62 55.86,-64.29 14.34,-27.45 21.37,-63.32 21.37,-107.36 l 0,-348.831 c 0,-32.157 15.89,-48.301 47.21,-48.301 9.34,0 17.94,1.633 25.38,5.078 l 0,-67.41 c -9.42,-1.594 -17.39,-2.891 -24.75,-3.801 -7.19,-0.957 -16.21,-1.375 -27.25,-1.375 -20.21,0 -36.57,2.742 -48.66,8.203 -12.07,5.692 -21.66,13.457 -28.33,23.699 -6.78,10.118 -10.99,22.188 -13.17,36.133 -2.07,14.153 -3.05,29.57 -3.05,46.574 l -2.54,0 c -14.42,-21.339 -28.98,-40.195 -43.87,-56.582 -14.83,-16.621 -31.42,-30.351 -49.59,-41.535 -18.31,-10.859 -39.16,-19.453 -62.47,-25.215 -23.22,-5.976 -51.16,-9.062 -83.4,-9.062 -30.37,0 -58.93,3.644 -85.76,10.957 -26.74,7.051 -50.01,18.574 -69.92,34.219 -19.71,15.539 -35.6,35.644 -47.12,59.707 -11.29,24.062 -17.01,52.578 -17.01,85.695 0,45.758 10.06,81.531 30.34,107.289 20.55,25.816 47.31,45.527 80.85,59.121 33.3,13.496 71.1,23.129 113.08,28.617 42.08,5.465 84.6,10.774 127.74,15.907 17.05,1.664 31.84,3.833 44.5,6.373 12.67,2.54 23.39,7.12 31.7,13.33 8.55,6.25 15.03,15.03 19.68,26.08 4.79,10.96 7.05,25.24 7.05,43.07 0,27.15 -4.41,49.43 -13.32,66.66 -8.79,17.56 -21.19,31.16 -36.86,41.51 -15.58,10.14 -33.97,17.1 -54.56,20.9 -20.86,3.71 -42.91,5.72 -66.82,5.72 -50.69,0 -92.12,-12.19 -124.4,-36.29 -32.04,-24.16 -49.11,-62.93 -50.75,-116.33 l -79.61,0 c 2.4,38.18 10.66,71.16 24.13,99.13"
             inkscape:connector-curvature="0"
             id="path36"
             style="fill:#ffffff;fill-opacity:1;fill-rule:nonzero;stroke:none" /><path
             d="m 6561.81,1270.73 0,-153.92 2.71,0 c 20.35,53.52 52.05,94.6 94.92,123.42 42.8,28.78 93.69,41.92 153.41,39.48 l 0,-79.51 c -36.68,1.59 -69.57,-3.29 -99.5,-14.7 -29.65,-11.45 -55.18,-27.71 -76.88,-49.14 -21.71,-20.94 -38.3,-46.34 -50.18,-75.61 -11.9,-29.27 -17.88,-61.281 -17.88,-96.109 l 0,-349.836 -79.41,0 0,655.925 72.81,0"
             inkscape:connector-curvature="0"
             id="path38"
             style="fill:#ffffff;fill-opacity:1;fill-rule:nonzero;stroke:none" /><path
             d="m 7249.02,1076.7 c -9.85,27.68 -23.41,52.28 -41.3,73.6 -17.85,21.57 -39.25,38.8 -64.75,51.74 -25.37,13.01 -54.09,19.58 -86.38,19.58 -33,0 -61.96,-6.57 -87.64,-19.58 -25.2,-12.94 -47.01,-30.17 -64.73,-51.74 -17.58,-21.32 -31.96,-46.17 -42.4,-74.34 -10.69,-28.07 -17.65,-56.85 -21.2,-86.144 l 424.31,0 c -0.85,30.134 -6.27,59.164 -15.91,86.884 z m -396.1,-245.391 c 8.19,-30.77 21.07,-58.778 38.69,-83.36 17.72,-24.511 40.27,-44.812 67.39,-60.918 27.02,-16.23 59.74,-24.219 97.85,-24.219 58.38,0 104.3,15.059 137.2,45.684 33.04,30.449 55.95,71.32 68.57,122.285 l 79.51,0 c -16.82,-74.804 -48.06,-132.519 -93.11,-173.172 -45.4,-40.851 -109.24,-61.144 -192.17,-61.144 -51.71,0 -96.36,9.14 -133.94,27.48 -37.67,18.215 -68.22,43.125 -91.84,75.09 -23.76,31.805 -41.3,68.692 -52.53,110.645 -11.61,42.078 -17.37,86.336 -17.37,132.941 0,43.317 5.76,85.669 17.37,127.229 11.23,41.66 28.77,78.76 52.53,111.29 23.62,32.78 54.17,59.09 91.84,79.09 37.58,19.84 82.13,29.82 133.68,29.82 52.52,0 97.17,-10.6 134.27,-31.97 37.32,-21.04 67.62,-48.78 90.79,-83.13 23.24,-34.4 39.8,-73.78 50.13,-118.31 9.9,-44.48 14.33,-89.691 12.63,-135.417 l -503.79,0 c 0,-28.911 4.27,-58.762 12.3,-89.914"
             inkscape:connector-curvature="0"
             id="path40"
             style="fill:#ffffff;fill-opacity:1;fill-rule:nonzero;stroke:none" /><path
             d="m 386.152,943.105 108.555,0 0,579.246 -108.555,0 0,-579.246 z"
             inkscape:connector-curvature="0"
             id="path42"
             style="fill:#ffffff;fill-opacity:1;fill-rule:nonzero;stroke:none" /><path
             d="m 638.262,1336.01 -0.059,-0.2 -46.504,-93.14 c 109.363,-55.42 184.707,-169.17 184.707,-299.565 0,-184.941 -151.086,-336.074 -336.074,-336.074 -184.785,0 -335.812,151.133 -335.812,336.074 0,131.015 75.968,245.065 185.89,300.345 l -0.683,0.23 -47.454,92.13 C 98.9844,1263.06 0,1114.05 0,943.105 0,700.801 198.242,502.68 440.332,502.68 c 242.266,0 440.48,198.121 440.48,440.425 0,170.945 -98.937,320.165 -242.55,392.905"
             inkscape:connector-curvature="0"
             id="path44"
             style="fill:#ffffff;fill-opacity:1;fill-rule:nonzero;stroke:none" /><path
             d="m 3176.46,289.602 c 0,4.019 1.61,6.039 6.03,6.039 l 55.1,0 c 4.03,0 5.64,-2.02 6.04,-6.039 l 3.22,-23.332 c 14.07,22.929 37,33.789 60.73,33.789 28.96,0 48.27,-12.071 57.12,-35.399 15.69,25.34 39.42,35.399 63.15,35.399 40.62,0 62.34,-22.93 62.34,-68.379 l 0,-103.371 22.93,0 c 4.01,0 6.03,-2.008 6.03,-6.028 l 0,-19.711 c 0,-4.4216 -2.02,-6.0388 -6.03,-6.0388 l -88.49,0 c -4.02,0 -6.04,2.0196 -6.04,6.0388 l 0,19.711 c 0,4.418 2.02,6.028 6.04,6.028 l 20.51,0 0,83.261 c 0,28.559 -2.82,48.668 -34.59,48.668 -23.73,0 -40.62,-16.898 -40.62,-34.988 l 0,-96.941 19.3,0 c 4.03,0 6.03,-2.008 6.03,-6.028 l 0,-19.711 c 0,-4.4216 -2,-6.0388 -6.03,-6.0388 l -82.45,0 c -4.03,0 -6.04,2.0196 -6.04,6.0388 l 0,19.711 c 0,4.418 2.01,6.028 6.04,6.028 l 18.1,0 0,83.261 c 0,28.559 -2.82,48.668 -34.59,48.668 -25.34,0 -41.03,-19.707 -41.03,-39.418 l 0,-92.511 24.53,0 c 4.43,0 6.04,-2.008 6.04,-6.028 l 0,-19.711 c 0,-4.4216 -2.01,-6.0388 -6.04,-6.0388 l -90.9,0 c -4.02,0 -6.03,2.0196 -6.03,6.0388 l 0,19.711 c 0,4.418 2.01,6.028 6.03,6.028 l 21.32,0 0,134.339 -21.72,0 c -4.02,0 -6.03,1.614 -6.03,6.032 l 0,20.922"
             inkscape:connector-curvature="0"
             id="path46"
             style="fill:#ffffff;fill-opacity:1;fill-rule:nonzero;stroke:none" /><path
             d="m 3678.42,195.879 c 0,45.051 -12.47,71.191 -47.06,71.191 -33.38,0 -46.25,-26.14 -46.25,-65.148 0,-35.813 6.84,-77.231 47.06,-77.231 32.98,0 46.25,24.938 46.25,71.188 z m -43.43,104.18 c 31.37,0 90.49,-9.661 90.49,-98.539 0,-75.219 -43.43,-109.8091 -96.93,-109.8091 -54.7,0 -88.89,32.9801 -88.89,101.3591 0,84.871 56.71,106.989 95.33,106.989"
             inkscape:connector-curvature="0"
             id="path48"
             style="fill:#ffffff;fill-opacity:1;fill-rule:nonzero;stroke:none" /><path
             d="m 3836.5,141.18 42.23,121.468 -20.51,0 c -4.03,0 -6.04,2.012 -6.04,6.032 l 0,20.922 c 0,4.418 2.01,6.039 6.04,6.039 l 58.72,0 c 6.43,0 9.66,-6.039 7.24,-12.071 L 3855.4,102.172 c -1.21,-4.0236 -4.02,-5.6408 -8.04,-5.6408 l -34.59,0 c -4.02,0 -6.44,1.6172 -8.05,5.6408 l -55.11,160.476 -20.1,0 c -4.03,0 -6.04,2.012 -6.04,6.032 l 0,20.922 c 0,4.418 2.01,6.039 6.04,6.039 l 52.68,0 c 4.03,0 6.44,-1.621 7.65,-5.641 l 46.66,-148.82"
             inkscape:connector-curvature="0"
             id="path50"
             style="fill:#ffffff;fill-opacity:1;fill-rule:nonzero;stroke:none" /><path
             d="m 4066.57,216 c 0.41,24.129 -6.44,50.27 -39.42,50.27 -34.99,0 -43.43,-28.95 -44.24,-50.27 l 83.66,0 z m -128.3,-19.711 c 0,53.09 28.95,103.77 92.11,103.77 61.53,0 78.42,-50.278 78.42,-93.719 0,-3.621 0,-8.852 -0.4,-13.668 -0.4,-4.832 -1.21,-6.442 -7.24,-6.442 l -118.25,0 c 2.41,-34.191 13.28,-60.742 56.71,-60.742 18.1,0 30.97,4.024 45.45,10.461 4.03,2.012 6.44,0.813 8.05,-3.211 l 7.64,-18.508 c 1.61,-4.019 0,-6.039 -3.62,-8.039 -14.08,-7.6402 -38.61,-14.4801 -66.36,-14.4801 -66.77,0 -92.51,43.4371 -92.51,104.5781"
             inkscape:connector-curvature="0"
             id="path52"
             style="fill:#ffffff;fill-opacity:1;fill-rule:nonzero;stroke:none" /><path
             d="m 4245.15,128.309 42.64,0 c 4.42,0 6.03,-2.008 6.03,-6.028 l 0,-19.711 c 0,-4.4216 -2.01,-6.0388 -6.03,-6.0388 l -112.62,0 c -4.02,0 -6.03,2.0196 -6.03,6.0388 l 0,19.711 c 0,4.418 2.01,6.028 6.03,6.028 l 24.93,0 0,134.75 -24.93,0 c -4.02,0 -6.03,2.011 -6.03,6.019 l 0,20.524 c 0,4.418 2.01,6.039 6.03,6.039 l 24.93,0 0,39.007 c 0,32.981 9.26,67.172 61.55,67.172 20.91,0 39.81,-6.84 47.06,-10.05 3.62,-1.61 4.42,-3.622 3.21,-7.649 l -6.04,-20.101 c -1.2,-3.231 -3.21,-4.43 -6.83,-2.829 -3.62,1.61 -15.69,7.25 -28.56,7.25 -23.73,0 -25.34,-14.48 -25.34,-43.441 l 0,-29.359 48.67,0 c 4.03,0 6.04,-2.02 6.04,-6.039 l 0,-20.524 c 0,-4.418 -2.01,-6.019 -6.04,-6.019 l -48.67,0 0,-134.75"
             inkscape:connector-curvature="0"
             id="path54"
             style="fill:#ffffff;fill-opacity:1;fill-rule:nonzero;stroke:none" /><path
             d="m 4431.78,188.238 c -32.58,-0.398 -76.02,-0.398 -76.02,-35.797 0,-18.902 10.46,-27.75 31.77,-27.75 29.77,0 44.25,17.289 44.25,32.579 l 0,30.968 z m -0.8,41.832 c 0,19.309 -3.22,39.008 -35,39.008 -25.34,0 -32.98,-11.258 -36.2,-25.738 -0.8,-3.61 -2.41,-6.02 -6.03,-6.02 l -25.74,0 c -4.02,0 -6.03,2.008 -5.63,6.02 2.41,41.84 38.61,56.719 80.04,56.719 57.52,0 72,-30.571 72,-65.969 l 0,-105.781 17.29,0 c 4.03,0 6.04,-2.008 6.04,-6.028 l 0,-19.711 c 0,-4.4216 -2.01,-6.0388 -6.04,-6.0388 l -47.46,0 c -4.02,0 -5.63,2.0196 -6.03,6.0388 l -2.81,18.5 c -14.49,-19.711 -34.19,-29.3591 -62.76,-29.3591 -30.57,0 -59.52,14.0701 -59.52,56.7111 0,65.168 72.79,66.769 117.85,67.578 l 0,14.07"
             inkscape:connector-curvature="0"
             id="path56"
             style="fill:#ffffff;fill-opacity:1;fill-rule:nonzero;stroke:none" /><path
             d="m 4650.99,292.809 c 4.43,-1.2 5.63,-2.809 5.63,-7.231 l 0,-42.637 c 0,-4.019 -2.02,-6.031 -6.04,-6.031 l -23.33,0 c -4.01,0 -6.02,1.61 -5.22,6.031 l 2.01,20.52 c -6.84,3.609 -16.5,6.43 -26.54,6.43 -17.71,0 -32.18,-5.231 -32.18,-22.532 0,-42.629 101.76,-17.687 101.76,-90.89 0,-40.231 -29.37,-64.7581 -81.25,-64.7581 -23.33,0 -46.25,5.2188 -56.71,8.0391 -4.43,1.211 -5.24,3.219 -5.24,7.641 l 0,42.64 c 0,4.02 2.01,6.039 6.04,6.039 l 23.33,0 c 4.02,0 6.03,-1.621 5.63,-6.039 l -1.21,-20.922 c 6.44,-4.82 18.1,-8.039 30.97,-8.039 18.9,0 35.8,4.828 35.8,25.34 0,47.871 -100.16,17.289 -100.16,91.711 0,33.789 27.36,61.938 76.83,61.938 22.13,0 41.02,-4.418 49.88,-7.25"
             inkscape:connector-curvature="0"
             id="path58"
             style="fill:#ffffff;fill-opacity:1;fill-rule:nonzero;stroke:none" /><path
             d="m 4751.14,161.289 c 0,-22.519 3.22,-35.801 24.14,-35.801 10.45,0 17.29,2.422 24.53,5.633 3.22,1.219 4.82,0.809 6.44,-3.211 l 7.23,-18.5 c 1.61,-4.031 0,-6.039 -3.61,-8.051 -11.27,-5.6285 -30.58,-9.6481 -45.86,-9.6481 -57.92,0 -57.92,39.0081 -57.92,74.0001 l 0,96.937 -22.92,0 c -4.02,0 -6.04,2.012 -6.04,6.032 l 0,20.922 c 0,4.418 2.02,6.039 6.04,6.039 l 22.92,0 0,54.289 c 0,4.031 1.61,6.039 6.03,6.039 l 32.98,0 c 4.03,0 6.04,-2.008 6.04,-6.039 l 0,-54.289 40.62,0 c 4.03,0 6.04,-2.02 6.04,-6.039 l 0,-20.922 c 0,-4.418 -2.01,-6.032 -6.04,-6.032 l -40.62,0 0,-101.359"
             inkscape:connector-curvature="0"
             id="path60"
             style="fill:#ffffff;fill-opacity:1;fill-rule:nonzero;stroke:none" /><path
             d="m 4945.82,216 c 0.41,24.129 -6.44,50.27 -39.42,50.27 -34.99,0 -43.44,-28.95 -44.25,-50.27 l 83.67,0 z m -128.31,-19.711 c 0,53.09 28.96,103.77 92.1,103.77 61.55,0 78.44,-50.278 78.44,-93.719 0,-3.621 0,-8.852 -0.4,-13.668 -0.4,-4.832 -1.21,-6.442 -7.23,-6.442 l -118.27,0 c 2.43,-34.191 13.28,-60.742 56.72,-60.742 18.1,0 30.97,4.024 45.45,10.461 4.02,2.012 6.44,0.813 8.05,-3.211 L 4980,114.23 c 1.62,-4.019 0,-6.039 -3.61,-8.039 -14.08,-7.6402 -38.61,-14.4801 -66.37,-14.4801 -66.76,0 -92.51,43.4371 -92.51,104.5781"
             inkscape:connector-curvature="0"
             id="path62"
             style="fill:#ffffff;fill-opacity:1;fill-rule:nonzero;stroke:none" /><path
             d="m 5163.82,296.84 c 4.43,-1.602 4.84,-3.219 4.84,-7.238 l 0,-54.301 c 0,-4.422 -2.01,-6.031 -6.04,-6.031 l -26.14,0 c -4.02,0 -6.04,1.609 -5.64,6.031 l 1.62,23.328 c -2.02,0.402 -4.84,0.402 -6.85,0.402 -24.13,0 -42.63,-20.91 -42.63,-55.5 l 0,-75.222 44.24,0 c 4.03,0 6.04,-2.008 6.04,-6.028 l 0,-19.711 c 0,-4.4216 -2.01,-6.0388 -6.04,-6.0388 l -110.6,0 c -4.03,0 -6.04,2.0196 -6.04,6.0388 l 0,19.711 c 0,4.418 2.01,6.028 6.04,6.028 l 21.31,0 0,134.339 -21.71,0 c -4.03,0 -6.04,2.012 -6.04,6.032 l 0,20.922 c 0,4.418 1.6,6.039 6.04,6.039 l 53.08,0 c 4.03,0 6.04,-2.02 6.84,-6.039 l 4.43,-28.551 c 8.04,19.301 28.56,39.008 57.51,39.008 8.85,0 22.13,-2.008 25.74,-3.219"
             inkscape:connector-curvature="0"
             id="path64"
             style="fill:#ffffff;fill-opacity:1;fill-rule:nonzero;stroke:none" /><path
             d="m 5207.26,38.2109 c -3.21,-5.2304 -5.22,-6.0312 -10.86,-3.2226 l -2.41,0.8125 c -5.63,2.8086 -6.44,4.4297 -4.42,10.4609 l 14.48,42.6289 c -6.04,7.2383 -15.69,16.4884 -15.69,31.3794 0,14.48 10.45,26.539 28.96,26.539 18.91,0 30.57,-10.047 30.57,-28.161 0,-14.878 -7.64,-27.7496 -18.5,-45.4488 l -22.13,-34.9883"
             inkscape:connector-curvature="0"
             id="path66"
             style="fill:#ffffff;fill-opacity:1;fill-rule:nonzero;stroke:none" /><path
             d="m 5511.33,243.34 c 0,0 -14.88,21.32 -44.65,21.32 -25.74,0 -47.86,-16.48 -47.86,-67.172 0,-40.617 7.24,-71.187 47.06,-71.187 21.72,0 45.45,16.488 45.45,45.449 l 0,71.59 z m 45.05,-123.481 c 0,-7.64 -0.4,-30.1598 -2.01,-47.859 -4.02,-44.2383 -31.78,-72 -88.9,-72 -31.76,0 -55.9,7.64844 -65.95,12.0703 -4.03,1.6016 -4.43,4.0313 -3.23,8.0391 l 7.25,21.3203 c 1.2,4.0195 4.02,4.832 8.04,3.2187 8.85,-3.6172 28.15,-10.0586 49.07,-10.0586 32.58,0 50.68,12.0704 50.68,54.711 l 0,31.3712 c -12.07,-19.711 -33.39,-28.9611 -59.53,-28.9611 -48.26,0 -78.43,33.7771 -78.43,98.5511 0,78.816 40.22,109.797 86.48,109.797 25.74,0 45.05,-10.86 58.32,-26.137 l 4.02,15.68 c 1.21,4.019 3.22,6.039 7.24,6.039 l 49.07,0 c 4.02,0 6.04,-2.02 6.04,-6.039 l 0,-20.922 c 0,-4.418 -2.02,-6.032 -6.04,-6.032 l -22.12,0 0,-142.789"
             inkscape:connector-curvature="0"
             id="path68"
             style="fill:#ffffff;fill-opacity:1;fill-rule:nonzero;stroke:none" /><path
             d="m 5752.26,296.84 c 4.42,-1.602 4.83,-3.219 4.83,-7.238 l 0,-54.301 c 0,-4.422 -2.01,-6.031 -6.03,-6.031 l -26.14,0 c -4.03,0 -6.04,1.609 -5.64,6.031 l 1.61,23.328 c -2.01,0.402 -4.83,0.402 -6.84,0.402 -24.13,0 -42.63,-20.91 -42.63,-55.5 l 0,-75.222 44.24,0 c 4.02,0 6.03,-2.008 6.03,-6.028 l 0,-19.711 c 0,-4.4216 -2.01,-6.0388 -6.03,-6.0388 l -110.61,0 c -4.02,0 -6.03,2.0196 -6.03,6.0388 l 0,19.711 c 0,4.418 2.01,6.028 6.03,6.028 l 21.32,0 0,134.339 -21.72,0 c -4.02,0 -6.03,2.012 -6.03,6.032 l 0,20.922 c 0,4.418 1.6,6.039 6.03,6.039 l 53.09,0 c 4.02,0 6.03,-2.02 6.84,-6.039 l 4.43,-28.551 c 8.04,19.301 28.55,39.008 57.51,39.008 8.85,0 22.13,-2.008 25.74,-3.219"
             inkscape:connector-curvature="0"
             id="path70"
             style="fill:#ffffff;fill-opacity:1;fill-rule:nonzero;stroke:none" /><path
             d="m 5912.75,195.879 c 0,45.051 -12.47,71.191 -47.06,71.191 -33.38,0 -46.25,-26.14 -46.25,-65.148 0,-35.813 6.83,-77.231 47.06,-77.231 32.98,0 46.25,24.938 46.25,71.188 z m -43.44,104.18 c 31.38,0 90.5,-9.661 90.5,-98.539 0,-75.219 -43.44,-109.8091 -96.93,-109.8091 -54.71,0 -88.89,32.9801 -88.89,101.3591 0,84.871 56.71,106.989 95.32,106.989"
             inkscape:connector-curvature="0"
             id="path72"
             style="fill:#ffffff;fill-opacity:1;fill-rule:nonzero;stroke:none" /><path
             d="M 6068.81,146.012 6108.64,290 c 1.2,4.02 3.61,5.641 7.63,5.641 l 32.18,0 c 4.43,0 6.44,-1.621 7.65,-5.641 l 41.02,-144.789 35.8,117.437 -19.3,0 c -4.03,0 -6.04,2.012 -6.04,6.032 l 0,20.922 c 0,4.418 2.01,6.039 6.04,6.039 l 51.48,0 c 6.84,0 9.65,-5.243 8.04,-10.86 l -55.51,-182.609 c -1.2,-4.0236 -3.61,-5.6408 -7.63,-5.6408 l -36.21,0 c -4.02,0 -6.43,1.6172 -7.64,6.0388 l -38.21,141.981 -39.82,-142.379 c -1.21,-4.0236 -3.62,-5.6408 -7.65,-5.6408 l -36.19,0 c -4.02,0 -6.43,1.6172 -7.64,5.6408 l -43.84,160.476 -20.92,0 c -4.02,0 -6.04,2.012 -6.04,6.032 l 0,20.922 c 0,4.418 2.02,6.039 6.04,6.039 l 52.69,0 c 4.02,0 6.43,-1.621 7.64,-6.039 l 36.6,-143.59"
             inkscape:connector-curvature="0"
             id="path74"
             style="fill:#ffffff;fill-opacity:1;fill-rule:nonzero;stroke:none" /><path
             d="m 6404.25,128.309 42.64,0 c 4.42,0 6.03,-2.008 6.03,-6.028 l 0,-19.711 c 0,-4.4216 -2.01,-6.0388 -6.03,-6.0388 l -112.62,0 c -4.02,0 -6.03,2.0196 -6.03,6.0388 l 0,19.711 c 0,4.418 2.01,6.028 6.03,6.028 l 24.93,0 0,134.75 -24.93,0 c -4.02,0 -6.03,2.011 -6.03,6.019 l 0,20.524 c 0,4.418 2.01,6.039 6.03,6.039 l 24.93,0 0,39.007 c 0,32.981 9.26,67.172 61.55,67.172 20.92,0 39.81,-6.84 47.06,-10.05 3.62,-1.61 4.42,-3.622 3.21,-7.649 l -6.03,-20.101 c -1.21,-3.231 -3.22,-4.43 -6.84,-2.829 -3.61,1.61 -15.68,7.25 -28.56,7.25 -23.73,0 -25.34,-14.48 -25.34,-43.441 l 0,-29.359 48.67,0 c 4.03,0 6.04,-2.02 6.04,-6.039 l 0,-20.524 c 0,-4.418 -2.01,-6.019 -6.04,-6.019 l -48.67,0 0,-134.75"
             inkscape:connector-curvature="0"
             id="path76"
             style="fill:#ffffff;fill-opacity:1;fill-rule:nonzero;stroke:none" /><path
             d="m 6590.88,188.238 c -32.57,-0.398 -76.02,-0.398 -76.02,-35.797 0,-18.902 10.46,-27.75 31.78,-27.75 29.76,0 44.24,17.289 44.24,32.579 l 0,30.968 z m -0.8,41.832 c 0,19.309 -3.22,39.008 -35,39.008 -25.34,0 -32.98,-11.258 -36.2,-25.738 -0.8,-3.61 -2.41,-6.02 -6.02,-6.02 l -25.75,0 c -4.02,0 -6.03,2.008 -5.63,6.02 2.41,41.84 38.61,56.719 80.04,56.719 57.52,0 72,-30.571 72,-65.969 l 0,-105.781 17.3,0 c 4.02,0 6.03,-2.008 6.03,-6.028 l 0,-19.711 c 0,-4.4216 -2.01,-6.0388 -6.03,-6.0388 l -47.47,0 c -4.02,0 -5.63,2.0196 -6.03,6.0388 l -2.81,18.5 c -14.49,-19.711 -34.19,-29.3591 -62.76,-29.3591 -30.56,0 -59.52,14.0701 -59.52,56.7111 0,65.168 72.79,66.769 117.85,67.578 l 0,14.07"
             inkscape:connector-curvature="0"
             id="path78"
             style="fill:#ffffff;fill-opacity:1;fill-rule:nonzero;stroke:none" /><path
             d="m 6810.1,292.809 c 4.43,-1.2 5.63,-2.809 5.63,-7.231 l 0,-42.637 c 0,-4.019 -2.01,-6.031 -6.04,-6.031 l -23.32,0 c -4.02,0 -6.03,1.61 -5.23,6.031 l 2.01,20.52 c -6.84,3.609 -16.49,6.43 -26.54,6.43 -17.71,0 -32.18,-5.231 -32.18,-22.532 0,-42.629 101.76,-17.687 101.76,-90.89 0,-40.231 -29.37,-64.7581 -81.25,-64.7581 -23.33,0 -46.25,5.2188 -56.71,8.0391 -4.43,1.211 -5.24,3.219 -5.24,7.641 l 0,42.64 c 0,4.02 2.01,6.039 6.04,6.039 l 23.33,0 c 4.02,0 6.03,-1.621 5.63,-6.039 l -1.21,-20.922 c 6.44,-4.82 18.11,-8.039 30.98,-8.039 18.9,0 35.79,4.828 35.79,25.34 0,47.871 -100.15,17.289 -100.15,91.711 0,33.789 27.35,61.938 76.82,61.938 22.13,0 41.03,-4.418 49.88,-7.25"
             inkscape:connector-curvature="0"
             id="path80"
             style="fill:#ffffff;fill-opacity:1;fill-rule:nonzero;stroke:none" /><path
             d="m 6910.25,161.289 c 0,-22.519 3.22,-35.801 24.14,-35.801 10.45,0 17.29,2.422 24.53,5.633 3.21,1.219 4.83,0.809 6.44,-3.211 l 7.23,-18.5 c 1.61,-4.031 0,-6.039 -3.61,-8.051 -11.27,-5.6285 -30.58,-9.6481 -45.86,-9.6481 -57.92,0 -57.92,39.0081 -57.92,74.0001 l 0,96.937 -22.92,0 c -4.02,0 -6.03,2.012 -6.03,6.032 l 0,20.922 c 0,4.418 2.01,6.039 6.03,6.039 l 22.92,0 0,54.289 c 0,4.031 1.61,6.039 6.04,6.039 l 32.98,0 c 4.02,0 6.03,-2.008 6.03,-6.039 l 0,-54.289 40.62,0 c 4.03,0 6.04,-2.02 6.04,-6.039 l 0,-20.922 c 0,-4.418 -2.01,-6.032 -6.04,-6.032 l -40.62,0 0,-101.359"
             inkscape:connector-curvature="0"
             id="path82"
             style="fill:#ffffff;fill-opacity:1;fill-rule:nonzero;stroke:none" /><path
             d="m 7104.92,216 c 0.41,24.129 -6.44,50.27 -39.42,50.27 -34.99,0 -43.43,-28.95 -44.25,-50.27 l 83.67,0 z m -128.3,-19.711 c 0,53.09 28.95,103.77 92.1,103.77 61.54,0 78.43,-50.278 78.43,-93.719 0,-3.621 0,-8.852 -0.4,-13.668 -0.4,-4.832 -1.21,-6.442 -7.23,-6.442 l -118.27,0 c 2.43,-34.191 13.29,-60.742 56.72,-60.742 18.1,0 30.97,4.024 45.45,10.461 4.03,2.012 6.44,0.813 8.05,-3.211 l 7.64,-18.508 c 1.61,-4.019 0,-6.039 -3.62,-8.039 -14.08,-7.6402 -38.61,-14.4801 -66.36,-14.4801 -66.77,0 -92.51,43.4371 -92.51,104.5781"
             inkscape:connector-curvature="0"
             id="path84"
             style="fill:#ffffff;fill-opacity:1;fill-rule:nonzero;stroke:none" /><path
             d="m 7322.92,296.84 c 4.43,-1.602 4.84,-3.219 4.84,-7.238 l 0,-54.301 c 0,-4.422 -2.01,-6.031 -6.04,-6.031 l -26.14,0 c -4.02,0 -6.03,1.609 -5.63,6.031 l 1.61,23.328 c -2.01,0.402 -4.84,0.402 -6.85,0.402 -24.13,0 -42.63,-20.91 -42.63,-55.5 l 0,-75.222 44.24,0 c 4.03,0 6.04,-2.008 6.04,-6.028 l 0,-19.711 c 0,-4.4216 -2.01,-6.0388 -6.04,-6.0388 l -110.6,0 c -4.03,0 -6.04,2.0196 -6.04,6.0388 l 0,19.711 c 0,4.418 2.01,6.028 6.04,6.028 l 21.32,0 0,134.339 -21.72,0 c -4.03,0 -6.04,2.012 -6.04,6.032 l 0,20.922 c 0,4.418 1.6,6.039 6.04,6.039 l 53.08,0 c 4.03,0 6.04,-2.02 6.84,-6.039 l 4.43,-28.551 c 8.04,19.301 28.56,39.008 57.51,39.008 8.85,0 22.13,-2.008 25.74,-3.219"
             inkscape:connector-curvature="0"
             id="path86"
             style="fill:#ffffff;fill-opacity:1;fill-rule:nonzero;stroke:none" /><path
             d="m 7300.15,635.742 4.16,0 c 4.85,0 8.79,1.621 8.79,5.547 0,3.457 -2.54,5.781 -8.1,5.781 -2.31,0 -3.93,-0.234 -4.85,-0.449 l 0,-10.879 z m -0.23,-21.504 -8.79,0 0,37.91 c 3.45,0.704 8.32,1.172 14.57,1.172 7.17,0 10.39,-1.172 13.18,-2.793 2.07,-1.601 3.69,-4.609 3.69,-8.32 0,-4.16 -3.24,-7.402 -7.85,-8.769 l 0,-0.469 c 3.69,-1.387 5.78,-4.16 6.94,-9.239 1.15,-5.781 1.83,-8.105 2.77,-9.492 l -9.49,0 c -1.16,1.387 -1.84,4.844 -3.01,9.258 -0.68,4.16 -2.99,6.016 -7.85,6.016 l -4.16,0 0,-15.274 z m -23.38,19.903 c 0,-16.895 12.52,-30.313 29.61,-30.313 16.66,0 28.9,13.418 28.9,30.059 0,16.894 -12.24,30.527 -29.14,30.527 -16.85,0 -29.37,-13.633 -29.37,-30.273 z m 68.22,0 c 0,-21.524 -16.85,-38.399 -38.85,-38.399 -21.72,0 -39.06,16.875 -39.06,38.399 0,21.035 17.34,37.91 39.06,37.91 22,0 38.85,-16.875 38.85,-37.91"
             inkscape:connector-curvature="0"
             id="path88"
             style="fill:#ffffff;fill-opacity:1;fill-rule:nonzero;stroke:none" /><path
             d="m 7308.63,106.789 c 0,-3.988 3.1,-5.551 6.64,-5.551 2.3,0 5.82,0.692 5.82,3.75 0,3.223 -4.47,3.774 -8.89,4.942 -4.45,1.172 -8.94,2.89 -8.94,8.519 0,6.133 5.8,9.063 11.21,9.063 6.25,0 11.99,-2.711 11.99,-9.653 l -6.37,0 c -0.21,3.621 -2.77,4.532 -5.92,4.532 -2.09,0 -4.53,-0.871 -4.53,-3.391 0,-2.309 1.43,-2.602 8.95,-4.539 2.17,-0.539 8.89,-1.93 8.89,-8.731 0,-5.48 -4.32,-9.6089 -12.47,-9.6089 -6.64,0 -12.83,3.2891 -12.75,10.6679 l 6.37,0"
             inkscape:connector-curvature="0"
             id="path90"
             style="fill:#ffffff;fill-opacity:1;fill-rule:nonzero;stroke:none" /><path
             d="m 7331.38,126.809 9.28,0 7.01,-20.61 0.08,0 6.64,20.61 9.28,0 0,-29.9574 -6.17,0 0,21.2264 -0.08,0 -7.35,-21.2264 -5.07,0 -7.35,21.0074 -0.1,0 0,-21.0074 -6.17,0 0,29.9574"
             inkscape:connector-curvature="0"
             id="path92"
             style="fill:#ffffff;fill-opacity:1;fill-rule:nonzero;stroke:none" /></g></g></g></g></svg>